<svg width="24" height="24" viewBox="0 0 24 24" fill="none" xmlns="http://www.w3.org/2000/svg">
<path d="M21.575 9.025C21.7083 9.49167 21.8125 9.975 21.8875 10.475C21.9625 10.975 22 11.4833 22 12C22 13.4167 21.7417 14.7333 21.225 15.95C20.7083 17.1667 20 18.225 19.1 19.125C18.2 20.025 17.1417 20.7292 15.925 21.2375C14.7083 21.7458 13.4 22 12 22C10.5833 22 9.26667 21.7458 8.05 21.2375C6.83333 20.7292 5.775 20.025 4.875 19.125C3.975 18.225 3.27083 17.1667 2.7625 15.95C2.25417 14.7333 2 13.4167 2 12C2 10.6 2.25417 9.29167 2.7625 8.075C3.27083 6.85833 3.975 5.8 4.875 4.9C5.775 4 6.83333 3.29167 8.05 2.775C9.26667 2.25833 10.5833 2 12 2C13.0833 2 14.1042 2.15833 15.0625 2.475C16.0208 2.79167 16.9167 3.21667 17.75 3.75C17.9333 3.86667 18.0375 4.025 18.0625 4.225C18.0875 4.425 18.0333 4.60833 17.9 4.775C17.7667 4.94167 17.6 5.04167 17.4 5.075C17.2 5.10833 17.0083 5.06667 16.825 4.95C16.125 4.51667 15.3708 4.16667 14.5625 3.9C13.7542 3.63333 12.9 3.5 12 3.5C9.58333 3.5 7.5625 4.3125 5.9375 5.9375C4.3125 7.5625 3.5 9.58333 3.5 12C3.5 14.4167 4.3125 16.4375 5.9375 18.0625C7.5625 19.6875 9.58333 20.5 12 20.5C14.4167 20.5 16.4375 19.6875 18.0625 18.0625C19.6875 16.4375 20.5 14.4167 20.5 12C20.5 11.5833 20.475 11.1833 20.425 10.8C20.375 10.4167 20.3 10.0333 20.2 9.65C20.15 9.45 20.1625 9.25 20.2375 9.05C20.3125 8.85 20.4417 8.70833 20.625 8.625C20.8083 8.54167 20.9958 8.53333 21.1875 8.6C21.3792 8.66667 21.5083 8.80833 21.575 9.025ZM10 16.025L6.95 12.95C6.8 12.8 6.725 12.6167 6.725 12.4C6.725 12.1833 6.80833 11.9917 6.975 11.825C7.125 11.675 7.30833 11.6 7.525 11.6C7.74167 11.6 7.93333 11.675 8.1 11.825L10.525 14.275L20.325 4.475C20.475 4.325 20.6583 4.24583 20.875 4.2375C21.0917 4.22917 21.2833 4.30833 21.45 4.475C21.6167 4.64167 21.7 4.83333 21.7 5.05C21.7 5.26667 21.6167 5.45833 21.45 5.625L11.05 16.025C10.9 16.175 10.7208 16.25 10.5125 16.25C10.3042 16.25 10.1333 16.175 10 16.025Z" fill="#3182CE"/>
</svg>
