<svg width="188" height="32" viewBox="0 0 188 32" fill="none" xmlns="http://www.w3.org/2000/svg">
<g clip-path="url(#clip0_2_111)">
<path d="M16 32C24.8366 32 32 24.8366 32 16C32 7.16344 24.8366 0 16 0C7.16344 0 0 7.16344 0 16C0 24.8366 7.16344 32 16 32Z" fill="#F7FAFC"/>
<path d="M16 29.809C23.6265 29.809 29.809 23.6265 29.809 16C29.809 8.37351 23.6265 2.19101 16 2.19101C8.37351 2.19101 2.19101 8.37351 2.19101 16C2.19101 23.6265 8.37351 29.809 16 29.809Z" fill="white"/>
<path d="M16 27.597C22.4049 27.597 27.597 22.4049 27.597 16C27.597 9.59517 22.4049 4.40302 16 4.40302C9.59517 4.40302 4.40302 9.59517 4.40302 16C4.40302 22.4049 9.59517 27.597 16 27.597Z" fill="#1A202C"/>
<path d="M14.113 23.273H17.118V16H19.123L19.389 13.494H17.119L17.122 12.239C17.122 11.586 17.184 11.235 18.122 11.235H19.375V8.72699H17.37C14.961 8.72699 14.114 9.94299 14.114 11.988V13.493H12.613V16H14.114V23.273H14.113Z" fill="white"/>
</g>
<g clip-path="url(#clip1_2_111)">
<path d="M172 32C180.837 32 188 24.8366 188 16C188 7.16344 180.837 0 172 0C163.163 0 156 7.16344 156 16C156 24.8366 163.163 32 172 32Z" fill="#F7FAFC"/>
<path d="M172 29.809C179.626 29.809 185.809 23.6265 185.809 16C185.809 8.37351 179.626 2.19101 172 2.19101C164.373 2.19101 158.191 8.37351 158.191 16C158.191 23.6265 164.373 29.809 172 29.809Z" fill="white"/>
<path d="M172 27.597C178.405 27.597 183.597 22.4049 183.597 16C183.597 9.59517 178.405 4.40302 172 4.40302C165.595 4.40302 160.403 9.59517 160.403 16C160.403 22.4049 165.595 27.597 172 27.597Z" fill="#1A202C"/>
<path d="M178.774 21.474V16.464C178.774 13.78 177.341 12.531 175.431 12.531C173.889 12.531 173.199 13.379 172.814 13.974V12.736H169.91C169.948 13.556 169.91 21.473 169.91 21.473H172.814V16.593C172.814 16.333 172.833 16.072 172.91 15.885C173.12 15.363 173.597 14.823 174.399 14.823C175.45 14.823 175.87 15.624 175.87 16.798V21.473L178.774 21.474ZM166.85 11.545C167.862 11.545 168.493 10.873 168.493 10.035C168.474 9.178 167.862 8.526 166.869 8.526C165.876 8.526 165.226 9.178 165.226 10.035C165.226 10.874 165.856 11.545 166.831 11.545H166.85ZM168.302 21.474V12.737H165.398V21.474H168.302Z" fill="white"/>
</g>
<g clip-path="url(#clip2_2_111)">
<path d="M120 32C128.837 32 136 24.8366 136 16C136 7.16344 128.837 0 120 0C111.163 0 104 7.16344 104 16C104 24.8366 111.163 32 120 32Z" fill="#F7FAFC"/>
<path d="M120 29.809C127.626 29.809 133.809 23.6265 133.809 16C133.809 8.37351 127.626 2.19101 120 2.19101C112.373 2.19101 106.191 8.37351 106.191 16C106.191 23.6265 112.373 29.809 120 29.809Z" fill="white"/>
<path d="M120 27.597C126.405 27.597 131.597 22.4049 131.597 16C131.597 9.59517 126.405 4.40302 120 4.40302C113.595 4.40302 108.403 9.59517 108.403 16C108.403 22.4049 113.595 27.597 120 27.597Z" fill="#1A202C"/>
<path d="M125.012 9.31699H114.988C114.044 9.31699 113.317 10.044 113.317 10.988V21.012C113.317 21.955 114.044 22.683 114.988 22.683H125.012C125.955 22.683 126.683 21.955 126.683 21.012V10.988C126.683 10.044 125.955 9.31699 125.012 9.31699ZM120.01 13.375C121.492 13.375 122.694 14.539 122.694 15.975C122.694 17.411 121.493 18.575 120.01 18.575C118.529 18.575 117.327 17.41 117.327 15.975C117.327 14.539 118.529 13.375 120.01 13.375ZM125.012 20.594C125.012 20.887 124.887 21.012 124.594 21.012H115.405C115.113 21.012 114.987 20.887 114.987 20.594V14.747L116.028 14.973C115.916 15.336 115.856 15.721 115.856 16.12C115.856 18.341 117.716 20.144 120.009 20.144C122.303 20.144 124.162 18.342 124.162 16.12C124.162 15.721 124.101 15.337 123.99 14.973L125.011 14.747V20.594H125.012ZM125.012 13.076C125.012 13.307 124.825 13.494 124.594 13.494H122.923C122.692 13.494 122.505 13.307 122.505 13.076V11.405C122.505 11.174 122.692 10.987 122.923 10.987H124.594C124.825 10.987 125.012 11.174 125.012 11.405V13.076Z" fill="white"/>
</g>
<g clip-path="url(#clip3_2_111)">
<path d="M68 32C76.8366 32 84 24.8366 84 16C84 7.16344 76.8366 0 68 0C59.1634 0 52 7.16344 52 16C52 24.8366 59.1634 32 68 32Z" fill="#F7FAFC"/>
<path d="M68 29.809C75.6265 29.809 81.809 23.6265 81.809 16C81.809 8.37351 75.6265 2.19101 68 2.19101C60.3735 2.19101 54.191 8.37351 54.191 16C54.191 23.6265 60.3735 29.809 68 29.809Z" fill="white"/>
<path d="M68 27.597C74.4049 27.597 79.597 22.4049 79.597 16C79.597 9.59517 74.4049 4.40302 68 4.40302C61.5952 4.40302 56.403 9.59517 56.403 16C56.403 22.4049 61.5952 27.597 68 27.597Z" fill="#1A202C"/>
<path d="M70.049 10.261C68.766 10.728 67.956 11.932 68.048 13.249L68.079 13.757L67.566 13.695C65.698 13.456 64.066 12.647 62.681 11.288L62.004 10.614L61.83 11.112C61.461 12.222 61.697 13.395 62.466 14.184C62.876 14.62 62.784 14.682 62.076 14.423C61.83 14.34 61.614 14.278 61.594 14.309C61.522 14.382 61.768 15.326 61.963 15.7C62.23 16.219 62.774 16.727 63.369 17.028L63.872 17.267L63.277 17.277C62.702 17.277 62.682 17.287 62.744 17.506C62.949 18.18 63.76 18.897 64.663 19.208L65.299 19.425L64.745 19.757C63.924 20.235 62.959 20.504 61.994 20.525C61.532 20.535 61.152 20.577 61.152 20.608C61.152 20.711 62.404 21.292 63.133 21.521C65.319 22.195 67.916 21.905 69.866 20.753C71.252 19.933 72.637 18.304 73.284 16.726C73.633 15.886 73.982 14.35 73.982 13.614C73.982 13.136 74.013 13.074 74.587 12.504C74.926 12.172 75.244 11.809 75.306 11.705C75.409 11.508 75.398 11.508 74.875 11.684C74.003 11.996 73.879 11.954 74.311 11.487C74.629 11.155 75.009 10.553 75.009 10.377C75.009 10.346 74.855 10.398 74.68 10.491C74.495 10.595 74.085 10.751 73.777 10.844L73.223 11.021L72.72 10.678C72.443 10.491 72.053 10.284 71.848 10.222C71.322 10.074 70.522 10.095 70.049 10.261Z" fill="white"/>
</g>
<defs>
<clipPath id="clip0_2_111">
<rect width="32" height="32" fill="white"/>
</clipPath>
<clipPath id="clip1_2_111">
<rect width="32" height="32" fill="white" transform="translate(156)"/>
</clipPath>
<clipPath id="clip2_2_111">
<rect width="32" height="32" fill="white" transform="translate(104)"/>
</clipPath>
<clipPath id="clip3_2_111">
<rect width="32" height="32" fill="white" transform="translate(52)"/>
</clipPath>
</defs>
</svg>
